<?xml version="1.0" encoding="UTF-8"?>
<svg width="150px" height="75px" viewBox="0 0 150 75" version="1.1" xmlns="http://www.w3.org/2000/svg" xmlns:xlink="http://www.w3.org/1999/xlink">
    <title>jac</title>
    <defs>
        <polygon id="path-1" points="0 0 10.9756098 0 10.9756098 10.9756098 0 10.9756098"></polygon>
    </defs>
    <g id="index" stroke="none" stroke-width="1" fill="none" fill-rule="evenodd">
        <g transform="translate(-100.000000, -40.000000)" id="header">
            <g id="jac" transform="translate(100.000000, 40.000000)">
                <path d="M49.8738436,0 L49.8713204,0 C48.7771236,0 47.3120269,0.048856701 46.020185,0.0916063145 C44.9974769,0.125631517 44.1143818,0.155294514 43.5937763,0.155294514 C43.0647603,0.155294514 42.2127839,0.12824884 41.2262405,0.0977134021 C39.8216989,0.0540913476 38.0740118,0 36.5155593,0 C36.0277544,0 35.1202691,0 35.1202691,0.775600129 C35.1202691,1.55120026 35.9529016,1.55120026 36.2666106,1.55120026 C37.0370059,1.55120026 37.8065601,1.61139869 38.1480235,1.69951524 C39.5441548,2.00661451 39.9537426,2.57893586 40.0555088,4.36220545 C40.1539108,6.00762935 40.1539108,7.427091 40.1539108,15.3043616 L40.1539108,30.5345657 C40.1547519,40.4132162 40.1555929,45.3721713 36.5037847,49.2100397 C35.6291001,50.1173784 34.8915055,50.7245974 34.1825063,51.1198132 C33.3288478,51.5891865 32.9268293,51.8605157 32.9268293,52.3246544 C32.9268293,52.7783237 33.2817494,53.0487805 33.6248949,53.0487805 C33.960471,53.0487805 34.4104289,52.9109348 34.7502103,52.7085285 C35.784693,52.1981504 36.6089151,51.7706543 37.2708158,51.3483928 C41.607233,48.583627 44.6610597,45.0546028 45.8687973,41.4165234 C46.9571068,38.2565418 47.0832632,34.6202073 47.0832632,32.1599235 C47.0832632,30.8137469 47.0428932,29.500723 47.0033642,28.2313212 C46.9671993,27.050036 46.9335576,25.9350563 46.9335576,24.8698057 L46.9335576,15.3043616 C46.9335576,7.427091 46.9335576,6.00762935 47.0328007,4.36046057 C47.1312027,2.56148704 47.5206056,1.91500819 48.6299411,1.70126013 C49.2279226,1.59831208 49.5004205,1.55120026 50.0235492,1.55120026 C50.3818335,1.55120026 51.2195122,1.55120026 51.2195122,0.775600129 C51.2195122,0 50.3103448,0 49.8738436,0" id="Fill-1" fill="#9C9C9C"></path>
                <path d="M88.6768172,38.7155986 C88.1845494,38.7155986 87.4278682,38.681216 86.6303774,38.5196181 C85.5412667,38.2583108 84.1877427,37.4142195 82.4048659,33.1464868 C80.5947827,28.7996743 77.1965192,20.1825504 74.4665158,13.2587666 C72.3052985,7.77904947 70.4391018,3.04629296 69.9077246,1.8145385 C69.4511653,0.752118043 69.0736749,0 68.3705566,0 C67.6274788,0 67.2627415,0.804551415 66.6786517,2.22970766 L54.0318745,34.2209412 C52.9631687,36.9234087 52.0440987,38.3451267 49.9925576,38.6158892 C49.6133669,38.6640248 48.9230016,38.7155986 48.4681428,38.7155986 C47.7182633,38.7155986 47.5609756,39.1032617 47.5609756,39.4290363 C47.5609756,40.2439024 48.4120293,40.2439024 48.8209772,40.2439024 C50.620858,40.2439024 52.454747,40.1734182 53.6679874,40.1270018 C54.2078666,40.1063723 54.5972598,40.0909001 54.7664503,40.0909001 C55.5350343,40.0909001 56.4745092,40.1295805 57.3833767,40.1665417 C58.320301,40.2043625 59.2886828,40.2439024 60.1074288,40.2439024 C60.4245547,40.2439024 61.2662561,40.2439024 61.2662561,39.4290363 C61.2662561,38.7155986 60.5775913,38.7155986 60.2077528,38.7155986 L59.4519219,38.7155986 C57.9428106,38.7155986 57.739612,38.0717855 57.739612,37.4417255 C57.739612,36.8941836 57.9691669,35.7234581 58.4758882,34.4427085 L61.1999403,27.1467337 C61.2535031,26.9859954 61.2841104,26.9593489 61.2875112,26.9576298 C61.2875112,26.9576298 61.3045153,26.9481746 61.3665802,26.9481746 L72.6028697,26.9481746 C72.725299,26.9481746 72.7695096,26.9696637 72.8239226,27.1071938 L76.8589885,37.9162045 C76.9372072,38.1061681 76.9414582,38.2840977 76.8708913,38.4319426 C76.8088264,38.5625963 76.7051016,38.6382379 76.6226319,38.6691821 C76.2953035,38.7027051 75.6763554,38.7860828 75.6763554,39.4290363 C75.6763554,40.0462028 76.3743725,40.0831641 77.2568837,40.1295805 L77.4830378,40.1416144 C81.5181037,40.2439024 85.2300922,40.2439024 87.0138191,40.2439024 C88.7354812,40.2439024 89.6341463,40.2078008 89.6341463,39.4290363 C89.6341463,38.7155986 88.9386799,38.7155986 88.6768172,38.7155986 L88.6768172,38.7155986 Z M71.5749737,23.7892788 L62.4769459,23.7892788 L67.0858991,11.3316253 L71.5749737,23.7892788 Z" id="Fill-3" fill="#F29100"></path>
                <path d="M116.565489,30.0047823 C116.106606,30.0047823 115.99959,30.3907263 115.907985,30.8970092 C115.759019,31.7926743 115.115213,33.9974547 114.071597,35.0942576 C111.936422,37.2921615 108.618939,37.5955874 105.351966,37.5955874 C100.28542,37.5955874 95.6263889,35.5971023 92.2335665,31.9697444 C89.0273792,28.5418053 87.1884232,23.8520269 87.1884232,19.1037983 C87.1884232,14.7354967 87.7252134,9.75260721 91.708762,5.91723498 C92.6410819,5.00867638 95.4774232,2.24174155 103.272439,2.24174155 C107.912636,2.24174155 111.662462,3.68151037 113.321632,5.10924531 C114.563869,6.16478926 115.398591,8.20625252 115.398591,10.1884059 C115.398591,10.7617347 115.398591,11.4115647 115.956784,11.4115647 C116.444775,11.4115647 116.52097,10.8623037 116.565489,10.1987207 C116.586892,9.87552479 116.598878,9.18701444 116.614288,8.39105866 C116.633979,7.29167698 116.658806,5.92497105 116.717879,4.95022607 C116.77952,3.83537224 116.859996,3.17436792 116.913075,2.73685011 C116.948177,2.44803678 116.971292,2.25721369 116.971292,2.08873925 C116.971292,1.64090668 116.732433,1.42773494 116.169103,1.37616113 C114.597258,1.27731133 113.004866,0.982481054 111.161629,0.642093917 L111.011807,0.614587886 C108.007665,0.0601694434 104.846853,0 103.627731,0 C96.8249636,0 91.7275967,1.79820679 88.0445479,5.49604887 C83.8221405,9.73541594 82.3170732,15.5151208 82.3170732,19.5112314 C82.3170732,25.8934902 84.4000248,31.0044546 88.5077114,34.7031563 C92.69673,38.4835164 98.0492221,40.2439024 105.351966,40.2439024 C108.371519,40.2439024 112.370477,39.9336 114.547603,39.059424 C115.50475,38.6313614 115.635737,38.4852356 115.950791,37.4855632 C116.46361,35.7337729 117.073171,31.3078805 117.073171,30.9219365 C117.073171,30.3391525 116.888248,30.0047823 116.565489,30.0047823" id="Fill-5" fill="#F29100"></path>
                <path d="M5.48780488,71.6637609 C5.48780488,73.7835573 4.44305713,75 2.70235932,75 C1.61565714,75 0.682787895,74.423548 0,73.4410011 L0.556924584,72.4427999 C1.16978842,73.2697231 1.93648519,73.7062059 2.68837451,73.7062059 C3.76109188,73.7062059 4.3599709,72.9888639 4.3599709,71.632452 L4.3599709,65.2242576 L0.877752632,65.2242576 L0.877752632,64.0243902 L5.48780488,64.0243902 L5.48780488,71.6637609 Z" id="Fill-7" fill="#9C9C9C"></path>
                <g id="Group-11" transform="translate(10.975610, 64.024390)">
                    <mask id="mask-2" fill="white">
                        <use xlink:href="#path-1"></use>
                    </mask>
                    <g id="Clip-10"></g>
                    <path d="M10.9756098,5.47219626 C10.9756098,8.53423897 8.54985055,10.9756098 5.49532181,10.9756098 C2.42575921,10.9756098 0,8.53423897 0,5.47219626 C0,2.39454494 2.42575921,0 5.49532181,0 C8.54985055,0 10.9756098,2.41015356 10.9756098,5.47219626 M1.21332178,5.47219626 C1.21332178,7.86582305 3.15976583,9.77833728 5.49532181,9.77833728 C7.8308778,9.77833728 9.74813845,7.86582305 9.74813845,5.47219626 C9.74813845,3.07856948 7.8308778,1.18166386 5.49532181,1.18166386 C3.15976583,1.18166386 1.21332178,3.07856948 1.21332178,5.47219626" id="Fill-9" fill="#9C9C9C" mask="url(#mask-2)"></path>
                </g>
                <path d="M31.3496579,64.0243902 C33.2184631,64.0243902 34.34507,65.0430513 34.34507,66.7682927 C34.34507,68.0536577 33.7226569,68.9787872 32.6351954,69.2454911 C33.9739709,69.4807092 34.7560976,70.5151132 34.7560976,72.0208795 C34.7560976,73.8868813 33.5104884,75 31.4162052,75 L27.4390244,75 L27.4390244,64.0243902 L31.3496579,64.0243902 Z M28.4998669,68.759312 L31.29642,68.759312 C32.5428121,68.759312 33.2717009,68.1166295 33.2717009,66.9720249 C33.2717009,65.8589062 32.5428121,65.2319666 31.29642,65.2319666 L28.4998669,65.2319666 L28.4998669,68.759312 Z M28.4998669,73.8081666 L31.29642,73.8081666 C32.8074356,73.8081666 33.6827285,73.1025123 33.6827285,71.8486331 C33.6827285,70.6567997 32.8074356,69.9511454 31.29642,69.9511454 L28.4998669,69.9511454 L28.4998669,73.8081666 Z" id="Fill-12" fill="#9C9C9C"></path>
                <path d="M47.3220518,65.0352775 L46.8442581,66.2013328 C45.9600078,65.5485254 44.9206405,65.2840972 44.1334422,65.2840972 C42.870109,65.2840972 42.0414355,65.8120356 42.0414355,66.7292711 C42.0414355,69.5278037 47.5750503,68.0670211 47.5609756,72.0150822 C47.5609756,73.8339448 46.1142954,75 44.0073577,75 C42.574806,75 41.1704573,74.3159755 40.2439024,73.3363054 L40.7490698,72.217076 C41.6623526,73.1967461 42.9115842,73.7559017 44.0214593,73.7559017 C45.4399094,73.7559017 46.3249892,73.118703 46.3249892,72.0775167 C46.3390907,69.2165496 40.805476,70.7406848 40.805476,66.8385314 C40.805476,65.1289292 42.16752,64.0243902 44.2039499,64.0243902 C45.3420281,64.0243902 46.5074799,64.429296 47.3220518,65.0352775" id="Fill-14" fill="#9C9C9C"></path>
                <path d="M55.5687608,72.2246117 L54.3626398,75 L53.0487805,75 L57.9033947,64.0243902 L59.1862107,64.0243902 L64.0243902,75 L62.6794877,75 L61.4742798,72.2246117 L55.5687608,72.2246117 Z M58.5059986,65.4514418 L56.0937567,71.0170353 L60.9483708,71.0170353 L58.5059986,65.4514418 Z" id="Fill-16" fill="#F29100"></path>
                <path d="M76.8145035,65.6101744 L76.1084001,66.5587066 C75.3145765,65.7038339 74.1967964,65.190543 73.0651202,65.190543 C70.7409715,65.190543 68.8736622,67.0866891 68.8736622,69.4814344 C68.8736622,71.8596515 70.7409715,73.7723258 73.0651202,73.7723258 C74.1967964,73.7723258 75.2998117,73.2746448 76.1084001,72.4656837 L76.8292683,73.3214746 C75.8148417,74.3315282 74.4321643,75 73.0060611,75 C70.0357365,75 67.6829268,72.5593432 67.6829268,69.4814344 C67.6829268,66.4338272 70.0652661,64.0243902 73.0503554,64.0243902 C74.4616938,64.0243902 75.8296064,64.6304224 76.8145035,65.6101744" id="Fill-18" fill="#F29100"></path>
                <path d="M83.0075755,72.2246117 L81.8024678,75 L80.4878049,75 L85.3420152,64.0243902 L86.6247246,64.0243902 L91.4634146,75 L90.118624,75 L88.9126033,72.2246117 L83.0075755,72.2246117 Z M85.9445691,65.4514418 L83.5334407,71.0170353 L88.3867381,71.0170353 L85.9445691,65.4514418 Z" id="Fill-20" fill="#F29100"></path>
                <path d="M100.976584,64.0243902 C103.878611,64.0243902 106.097561,66.3923142 106.097561,69.5121951 C106.097561,72.6320761 103.864328,75 100.933735,75 L96.9512195,75 L96.9512195,64.0243902 L100.976584,64.0243902 Z M98.0888409,73.8081666 L100.990868,73.8081666 C103.209817,73.8081666 104.945656,71.9736506 104.945656,69.5279381 C104.945656,67.0664826 103.181251,65.2319666 100.948018,65.2319666 L98.0888409,65.2319666 L98.0888409,73.8081666 Z" id="Fill-22" fill="#F29100"></path>
                <polygon id="Fill-24" fill="#F29100" points="112.784509 65.2319666 112.784509 68.8380267 118.077918 68.8380267 118.077918 70.0456031 112.784509 70.0456031 112.784509 73.8081666 118.902439 73.8081666 118.902439 75 111.585366 75 111.585366 64.0243902 118.7076 64.0243902 118.7076 65.2319666"></polygon>
                <polygon id="Fill-26" fill="#F29100" points="134.218574 75 134.203009 65.9533638 130.250251 73.8396525 129.505847 73.8396525 125.567739 65.9533638 125.567739 75 124.390244 75 124.390244 64.0243902 125.924833 64.0243902 129.893157 71.9273479 133.84683 64.0243902 135.365854 64.0243902 135.365854 75"></polygon>
                <polygon id="Fill-28" fill="#F29100" points="146.050324 75 144.876996 75 144.876996 71.2837393 140.853659 64.0243902 142.08574 64.0243902 145.456645 69.7474132 148.781949 64.0243902 150 64.0243902 146.050324 71.2374365"></polygon>
            </g>
        </g>
    </g>
</svg>